<svg viewBox="0 0 280.63 63.9" xmlns="http://www.w3.org/2000/svg" role="img" aria-label="ACCSO Company Logo">
  <title>ACCSO Logo</title>
  <style>
    .cls-1 { fill: #2dfa87; }
  </style>
  
  <path class="cls-1" d="M63.9,63.9H0V0h63.9v63.9ZM2.24,61.66h59.42V2.24H2.24v59.42Z"/>
  <path class="cls-1" d="M120.27,18.64l-4.54,15.56h11.56l-4.36-15.56-1.21-4.78h-.18l-1.27,4.78ZM129.71,42.73h-16.47l-2.54,8.84h-10.78l15.68-45.4h12.17l15.86,45.4h-11.38l-2.54-8.84Z"/>
  <g>
    <path class="cls-1" d="M173.24,21.3c-2.18-.85-5.02-1.39-8.23-1.39-7.51,0-9.93,2.91-9.93,11.87,0,9.44,2.54,12.35,10.05,12.35,3.15,0,5.93-.67,8.23-1.63l1.03,7.57c-2.91,1.33-6.84,2.24-10.53,2.24-12.53,0-18.71-6.78-18.71-20.58,0-12.95,5.93-20.16,19.37-20.16,3.39,0,7.2.79,9.75,1.69l-1.03,8.05Z"/>
    <path class="cls-1" d="M205.81,21.3c-2.18-.85-5.02-1.39-8.23-1.39-7.51,0-9.93,2.91-9.93,11.87,0,9.44,2.54,12.35,10.05,12.35,3.15,0,5.93-.67,8.23-1.63l1.03,7.57c-2.91,1.33-6.84,2.24-10.53,2.24-12.53,0-18.71-6.78-18.71-20.58,0-12.95,5.93-20.16,19.37-20.16,3.39,0,7.2.79,9.75,1.69l-1.03,8.05Z"/>
    <path class="cls-1" d="M224.51,52.29c-4.9,0-9.32-1.09-12.95-2.97l1.21-8.05c3.69,1.94,7.51,3.03,11.68,3.03,4.42,0,6.36-1.51,6.36-3.99,0-5.87-19.07-2.97-19.07-16.47,0-6.66,4.42-12.23,15.01-12.23,4.06,0,8.48.73,11.75,2.12l-1.09,7.81c-3.63-1.09-7.02-1.76-10.23-1.76-5.02,0-6.36,1.63-6.36,3.57,0,5.81,19.07,2.66,19.07,16.28,0,7.75-5.75,12.65-15.38,12.65"/>
    <path class="cls-1" d="M262.23,19.91c-6.3,0-8.54,2.54-8.54,12.05s2.24,12.05,8.54,12.05,8.41-2.66,8.41-12.05-2.06-12.05-8.41-12.05M262.23,52.29c-12.96,0-18.46-6.72-18.46-20.34s5.39-20.28,18.46-20.28,18.4,6.6,18.4,20.28-5.33,20.34-18.4,20.34"/>
  </g>
  <g>
    <polygon class="cls-1" points="92.16 20.18 41.5 20.18 44.2 12.33 94.86 12.33 92.16 20.18"/>
    <polygon class="cls-1" points="86.76 35.87 36.09 35.87 38.8 28.03 89.46 28.03 86.76 35.87"/>
    <polygon class="cls-1" points="81.36 51.57 30.7 51.57 33.4 43.72 84.06 43.72 81.36 51.57"/>
  </g>
</svg> 