<?xml version="1.0" encoding="UTF-8"?>
<svg xmlns="http://www.w3.org/2000/svg" xmlns:xlink="http://www.w3.org/1999/xlink" id="logo" width="243.162" height="95.474" viewBox="0 0 243.162 95.474">
  <defs>
    <linearGradient id="linear-gradient" x1="0.729" y1="0.047" x2="0.249" y2="1.57" gradientUnits="objectBoundingBox">
      <stop offset="0" stop-color="#e8dd00"></stop>
      <stop offset="1" stop-color="#87ba2a"></stop>
    </linearGradient>
  </defs>
  <g id="Group_1126" data-name="Group 1126" transform="translate(-315.387 -160.94)">
    <g id="Group_1083" data-name="Group 1083" transform="translate(378.238 231.241)">
      <g id="Group_1082" data-name="Group 1082">
        <path id="Path_525" data-name="Path 525" d="M371.159,229.79a10.669,10.669,0,0,1-2.524-.411l.438-1.167a6.147,6.147,0,0,0,2.1.523c1.084,0,2.1-.289,2.1-1.47,0-1-.988-1.344-2.059-1.743-1.236-.452-2.579-.974-2.579-2.635,0-1.716,1.563-2.388,3.2-2.388a8.045,8.045,0,0,1,2.291.371l-.439,1.166a4.164,4.164,0,0,0-1.866-.479c-1.277,0-1.785.548-1.785,1.33s.8,1.084,1.715,1.414c1.318.466,2.924.974,2.924,2.937C374.672,229.3,373,229.79,371.159,229.79Z" transform="translate(-368.635 -220.5)" fill="#a1c323"></path>
        <path id="Path_526" data-name="Path 526" d="M380.293,225.524v3.994H378.92V225.58l-3.186-4.94h1.552l2.374,3.7,2.306-3.7h1.454Z" transform="translate(-367.355 -220.475)" fill="#a1c323"></path>
        <path id="Path_527" data-name="Path 527" d="M386.757,229.79a10.7,10.7,0,0,1-2.526-.411l.439-1.167a6.154,6.154,0,0,0,2.1.523c1.084,0,2.1-.289,2.1-1.47,0-1-.988-1.344-2.059-1.743-1.235-.452-2.58-.974-2.58-2.635,0-1.716,1.565-2.388,3.2-2.388a8.061,8.061,0,0,1,2.293.371l-.44,1.166a4.164,4.164,0,0,0-1.866-.479c-1.276,0-1.785.548-1.785,1.33s.8,1.084,1.716,1.414c1.316.466,2.924.974,2.924,2.937C390.271,229.3,388.6,229.79,386.757,229.79Z" transform="translate(-365.822 -220.5)" fill="#a1c323"></path>
        <path id="Path_528" data-name="Path 528" d="M395.333,221.709v7.809h-1.357v-7.809h-2.54V220.64h6.439v1.069Z" transform="translate(-364.523 -220.475)" fill="#a1c323"></path>
        <path id="Path_529" data-name="Path 529" d="M399.328,229.519V220.64h5.093V221.7H400.7v2.7h3.431v1.058H400.7v3.005h3.843v1.056Z" transform="translate(-363.1 -220.475)" fill="#a1c323"></path>
        <path id="Path_530" data-name="Path 530" d="M415,229.519v-7.424l-2.758,7.424h-1.3l-2.771-7.424v7.424h-1.291V220.64h2.184l2.579,7.012,2.622-7.012h2.073v8.879Z" transform="translate(-361.739 -220.475)" fill="#a1c323"></path>
        <path id="Path_531" data-name="Path 531" d="M420.333,229.79a10.669,10.669,0,0,1-2.524-.411l.438-1.167a6.147,6.147,0,0,0,2.1.523c1.084,0,2.1-.289,2.1-1.47,0-1-.989-1.344-2.059-1.743-1.236-.452-2.579-.974-2.579-2.635,0-1.716,1.563-2.388,3.2-2.388a8.046,8.046,0,0,1,2.291.371l-.439,1.166a4.164,4.164,0,0,0-1.866-.479c-1.277,0-1.785.548-1.785,1.33s.8,1.084,1.715,1.414c1.317.466,2.924.974,2.924,2.937C423.846,229.3,422.173,229.79,420.333,229.79Z" transform="translate(-359.767 -220.5)" fill="#a1c323"></path>
        <path id="Path_532" data-name="Path 532" d="M429.884,229.519V220.64h1.373v7.781h3.869v1.1Z" transform="translate(-357.589 -220.475)" fill="#a1c323"></path>
        <path id="Path_533" data-name="Path 533" d="M436.427,229.519V220.64H437.8v8.879Z" transform="translate(-356.409 -220.475)" fill="#a1c323"></path>
        <path id="Path_534" data-name="Path 534" d="M448.851,229.519v-7.424l-2.758,7.424h-1.3l-2.773-7.424v7.424h-1.29V220.64h2.182l2.58,7.012,2.62-7.012h2.073v8.879Z" transform="translate(-355.634 -220.475)" fill="#a1c323"></path>
        <path id="Path_535" data-name="Path 535" d="M451.873,229.519V220.64h1.372v8.879Z" transform="translate(-353.623 -220.475)" fill="#a1c323"></path>
        <path id="Path_536" data-name="Path 536" d="M459.235,221.709v7.809h-1.36v-7.809h-2.539V220.64h6.436v1.069Z" transform="translate(-352.999 -220.475)" fill="#a1c323"></path>
        <path id="Path_537" data-name="Path 537" d="M463.228,229.519V220.64h5.091V221.7H464.6v2.7h3.43v1.058H464.6v3.005h3.842v1.056Z" transform="translate(-351.576 -220.475)" fill="#a1c323"></path>
        <path id="Path_538" data-name="Path 538" d="M473.31,229.519h-2.54V220.64h2.54c2.965,0,4.24,1.18,4.24,4.405S476.275,229.519,473.31,229.519Zm0-7.823h-1.166v6.767h1.289c1.729,0,2.7-.824,2.7-3.4C476.136,222.272,475.135,221.7,473.31,221.7Z" transform="translate(-350.215 -220.475)" fill="#a1c323"></path>
      </g>
    </g>
    <g id="Group_1085" data-name="Group 1085" transform="translate(376.169 198.69)">
      <g id="Group_1084" data-name="Group 1084">
        <path id="Path_539" data-name="Path 539" d="M369.852,212.021V196.7a2.582,2.582,0,0,0-.76-2.21,4.311,4.311,0,0,0-2.21-.544v-.4l.869-.073H378.8a19.93,19.93,0,0,1,7.1,1.232,12.636,12.636,0,0,1,5.289,3.731,9.587,9.587,0,0,1,2.064,6.085,9.69,9.69,0,0,1-2.064,6.086,12.221,12.221,0,0,1-5.289,3.73,19.408,19.408,0,0,1-7.1,1.269H367.751l-.869-.073v-.4a3.824,3.824,0,0,0,2.245-.616A3.174,3.174,0,0,0,369.852,212.021Zm4.311-15.432v15.83a2.341,2.341,0,0,0,.4,1.7,1.709,1.709,0,0,0,1.376.4q6.519-.035,9.49-2.644a9.22,9.22,0,0,0,2.97-7.39,9.066,9.066,0,0,0-2.97-7.316q-2.971-2.61-9.49-2.645a1.713,1.713,0,0,0-1.376.4,2.341,2.341,0,0,0-.4,1.7Z" transform="translate(-366.882 -192.822)" fill="#818386"></path>
        <path id="Path_540" data-name="Path 540" d="M393.334,205.728a9.382,9.382,0,0,1,1.92-5.76,12.177,12.177,0,0,1,4.889-3.766,15.8,15.8,0,0,1,6.593-1.376,15.041,15.041,0,0,1,6.013,1.231,11.5,11.5,0,0,1,4.673,3.477,8.536,8.536,0,0,1,1.884,5.433,9.538,9.538,0,0,1-2.029,5.9,13.314,13.314,0,0,1-5.071,3.768,16.379,16.379,0,0,1-6.448,1.3,14.377,14.377,0,0,1-5.941-1.268,12.064,12.064,0,0,1-4.636-3.55A8.585,8.585,0,0,1,393.334,205.728Zm12.5-9.78v.037a7.527,7.527,0,0,0-5.65,2.5,9.234,9.234,0,0,0-2.283,6.338,10.845,10.845,0,0,0,1.2,4.891,9.332,9.332,0,0,0,3.152,3.621,8.031,8.031,0,0,0,4.563,1.413,7.362,7.362,0,0,0,4.093-1.231,8.036,8.036,0,0,0,2.754-3.188,9.992,9.992,0,0,0,1.014-4.528,10.861,10.861,0,0,0-1.087-4.854,9.015,9.015,0,0,0-3.043-3.586,8.438,8.438,0,0,0-4.708-1.376Z" transform="translate(-362.111 -192.579)" fill="#818386"></path>
        <path id="Path_541" data-name="Path 541" d="M450.074,195.786v.037h-.615a2.224,2.224,0,0,0-1.63.869,3.584,3.584,0,0,0-.543,1.92l2.173,14.128a2.206,2.206,0,0,0,.725,1.557,3.569,3.569,0,0,0,1.992.471v.434l-.907.073H443.3l-.833-.037V214.8a3.153,3.153,0,0,0,2.029-.653,2.33,2.33,0,0,0,.615-1.774v-.508l-.072-.58-1.665-10.866-6.521,13.4a3.441,3.441,0,0,1-.76,1.05,1.849,1.849,0,0,1-1.376.616l-.652-.073-.544-.361-7.172-14.49-1.086,6.231-1.015,6.266a1.483,1.483,0,0,0,.832,1.268,5.26,5.26,0,0,0,1.92.434v.434l-.905.073h-6.3l-.832-.073v-.471a3.045,3.045,0,0,0,1.811-.471,2.107,2.107,0,0,0,.833-1.485l2.282-13.692.11-.543v-.508a1.865,1.865,0,0,0-.726-1.739,4.633,4.633,0,0,0-2.028-.508v-.361l1.521-.073,1.992-.037h1.2a3.255,3.255,0,0,1,1.557.364,3.053,3.053,0,0,1,1.412,1.412l6.775,13.657,3.368-6.847,3.332-6.845a3.706,3.706,0,0,1,.8-1.2,2.133,2.133,0,0,1,1.485-.544h4.492l.9.073v.4Z" transform="translate(-357.49 -192.491)" fill="#818386"></path>
        <path id="Path_542" data-name="Path 542" d="M456.421,198.54v13.8q0,1.485.688,1.919a3.733,3.733,0,0,0,2.064.508v.434l-.87.073H450.48l-.833-.073v-.434a3.953,3.953,0,0,0,1.992-.471,2.242,2.242,0,0,0,.688-1.956v-13.8a2.774,2.774,0,0,0-.652-2.173,3.271,3.271,0,0,0-2.029-.581v-.361l1.015-.073.615-.037H458.3l.87.073v.4a4.029,4.029,0,0,0-2.138.616,2.816,2.816,0,0,0-.615,2.174Z" transform="translate(-351.956 -192.49)" fill="#818386"></path>
        <path id="Path_543" data-name="Path 543" d="M485.827,198.54v.037l.035,16.662a.571.571,0,0,1-.434.362l-.869.072-.942-.144a1.5,1.5,0,0,1-.761-.364l-15.5-15.828v12.678q-.037,1.7.616,2.173a3.828,3.828,0,0,0,2.138.58v.434l-.907.073h-6.23l-.833-.073v-.434a3.876,3.876,0,0,0,1.956-.471,2.242,2.242,0,0,0,.688-1.956V198.576a2.765,2.765,0,0,0-.652-2.21,3.2,3.2,0,0,0-1.992-.581v-.361l.979-.073.652-.037h3.115a3.824,3.824,0,0,1,2.246.835,12.933,12.933,0,0,1,1.774,1.665l12.389,12.678V198.249a2.246,2.246,0,0,0-.688-1.956,3.717,3.717,0,0,0-1.992-.508v-.4l.869-.073h6.194l.87.073v.4a3.817,3.817,0,0,0-2.1.616,2.633,2.633,0,0,0-.615,2.174Z" transform="translate(-349.703 -192.49)" fill="#818386"></path>
        <path id="Path_544" data-name="Path 544" d="M495.7,198.54v13.8q0,1.485.688,1.919a3.733,3.733,0,0,0,2.064.508v.434l-.869.073h-7.823l-.833-.073v-.434a3.949,3.949,0,0,0,1.991-.471,2.243,2.243,0,0,0,.688-1.956v-13.8a2.77,2.77,0,0,0-.652-2.173,3.269,3.269,0,0,0-2.028-.581v-.361l1.014-.073.616-.037h7.027l.869.073v.4a4.032,4.032,0,0,0-2.138.616,2.816,2.816,0,0,0-.615,2.174Z" transform="translate(-344.872 -192.49)" fill="#818386"></path>
        <path id="Path_545" data-name="Path 545" d="M524.427,194.95v.037l.038,2.753v.907l-.11,1.014h-.362a6.233,6.233,0,0,0-1.775-3.078,9.024,9.024,0,0,0-3.15-1.812,12.053,12.053,0,0,0-3.838-.616,8.536,8.536,0,0,0-6.341,2.753,10.211,10.211,0,0,0-2.571,7.064,11.651,11.651,0,0,0,1.3,5.47,10.707,10.707,0,0,0,3.586,4.02,9.577,9.577,0,0,0,5.181,1.593,12.521,12.521,0,0,0,4.383-.833,8.367,8.367,0,0,0,3.622-2.571l.58.217a7.015,7.015,0,0,1-4.02,3.549,15.709,15.709,0,0,1-5.8.905,15.525,15.525,0,0,1-6.484-1.413A13.149,13.149,0,0,1,503.6,211a9.616,9.616,0,0,1-2.029-6.013,10.257,10.257,0,0,1,2.1-6.338,13.28,13.28,0,0,1,5.361-4.2,17.989,17.989,0,0,1,7.244-1.521,19.045,19.045,0,0,1,4.383.471,13.557,13.557,0,0,1,3.766,1.593Z" transform="translate(-342.591 -192.922)" fill="#818386"></path>
      </g>
    </g>
    <g id="Group_1088" data-name="Group 1088" transform="translate(315.387 160.94)">
      <g id="Group_1087" data-name="Group 1087">
        <path id="Path_546" data-name="Path 546" d="M343.287,200.723a23.145,23.145,0,0,0-2.636-.341,20.289,20.289,0,0,0-20.375,20.474A20.537,20.537,0,1,0,358.6,210.532a18.735,18.735,0,0,1,2.271,8.958,19.013,19.013,0,1,1-19.014-18.9Z" transform="translate(-314.505 -153.827)" fill="#fff"></path>
        <g id="Group_1086" data-name="Group 1086">
          <path id="Path_547" data-name="Path 547" d="M343.293,160.94a10.612,10.612,0,0,1,6.524,11.744c-1.019,6.235-7.486,13.138-.5,22.908-1.394-2.8-2.174-5.16-1.749-7.815.535-3.364,4.426-5.653,4.122-8.3,1.817,1.046,3.294,5.438,2.54,9s-4.4,6.859-4.226,7.878c.1.623.033.425-.276.04l-.256-.281C335.1,181.687,349.18,169.3,343.293,160.94Zm17.071,62.267a19.55,19.55,0,0,0-.888-3.183l.085-.179a29.555,29.555,0,0,0-4.126-8.2c-2.532-3.117-18.3-22.325-18.3-22.325s.811-6.416,3.384-9.93c-6.944,2.943-7.668,11.449-4.9,16.239,4.574,8.231,19.423,13.063,22.8,25.072,2.416,8.6-3.575,16.705-12.1,18.285A15.693,15.693,0,1,1,346.006,208c.312.05.354.013.063-.059a19.335,19.335,0,1,0,14.3,15.265Z" transform="translate(-314.176 -160.94)" fill="url(#linear-gradient)"></path>
          <path id="Path_548" data-name="Path 548" d="M364.816,224.266c-2.4-19.366-19.015-30.413-21.763-39.9a25,25,0,0,1-1.106-7.963s-6.866,3.131-4.312,12.911c2.4,9.2,14.72,13.961,20.174,22.754a27.9,27.9,0,0,1,4.371,11.611,20.3,20.3,0,1,1-27.318-17.395,19.206,19.206,0,0,1,4.226-1.316,20.1,20.1,0,0,1,8.064.168,2.515,2.515,0,0,0,.359.065,27.944,27.944,0,0,0-11.854-.733,24.785,24.785,0,1,0,9.04,48.739C358.156,250.709,366.5,237.852,364.816,224.266Z" transform="translate(-315.387 -158.151)" fill="#00973d"></path>
        </g>
      </g>
    </g>
  </g>
</svg>
